<?xml version="1.0" encoding="utf-8" ?><svg xmlns="http://www.w3.org/2000/svg" xmlns:xlink="http://www.w3.org/1999/xlink" width="100" height="100" viewBox="0 0 100 100"><path fill="#EFDEE0" d="M56.5898 56.6506C56.4662 54.4869 56.1692 43.9157 56.8637 42.4687C58.7606 41.1291 61.4592 43.0177 63.8446 42.2479C65.9613 41.6656 66.9346 39.3471 66.3597 37.2236C64.3484 29.795 55.8432 39.6802 56.4806 31.1606C56.7014 28.2097 55.9365 19.2423 57.0928 17.1771C58.6377 16.3719 62.9011 16.7639 64.7681 16.7733L76.0501 16.7433C81.5812 16.74 95.1996 16.0752 100 17.3041L100 100L17.2922 100C15.3092 96.2361 17.2526 68.6462 16.4901 62.7981C16.3881 62.0158 16.5092 58.6282 16.6198 57.7167C17.6622 56.2665 32.6115 56.386 34.5976 57.0271C35.2877 57.9835 34.3096 61.67 34.0907 63.1607C36.2699 68.7267 40.2318 67.2534 42.737 62.8541C42.5797 61.8858 40.9301 57.9207 41.8181 57.5645C45.3881 56.1327 52.7221 56.6734 56.5898 56.6506ZM20.051 60.0356L20.097 96.7923C22.7221 96.4084 29.4356 96.6543 32.388 96.6671C40.4531 96.7242 48.5186 96.6897 56.583 96.5637C56.4895 93.6622 56.0109 84.2074 57.1446 82.1393C58.3419 81.3095 61.1485 82.4425 62.6174 82.8044C65.0653 81.8448 67.357 79.3364 66.5867 76.7246C65.5349 73.1582 58.3614 75.1192 56.8481 74.4109C56.1552 72.6577 56.5226 62.5397 56.5188 59.9637C54.8231 60.0108 46.5873 59.7307 45.9275 60.3234C47.8071 72.6025 28.8019 73.604 30.6554 60.0191L20.051 60.0356ZM60.0221 60.026C60.0342 63.6162 60.0789 67.2566 60.0397 70.8424C62.4459 70.4094 64.8183 70.5815 66.8075 72.0204C72.279 75.9783 70.5513 84.8829 63.5907 85.9114C62.4065 86.0864 61.1987 86.0444 60.0404 85.9893C60.0564 89.5578 60.0418 93.1721 60.1071 96.7362C62.5416 96.4584 66.927 96.6424 69.5231 96.6839L87.7192 96.6568C89.9056 96.6521 94.6549 96.4826 96.5535 96.6787C96.2189 87.0213 96.5991 77.1926 96.4373 67.5189C96.3979 65.1659 96.3235 62.2839 96.499 59.9677C92.6966 60.0284 85.3615 60.7115 81.8822 59.2076C81.0632 58.8536 82.5532 54.9233 82.7311 54.0251C81.5945 51.016 80.6127 49.7883 77.0464 50.2591C75.206 51.0713 75.4428 51.1022 74.677 52.4148C73.6031 54.2556 75.6002 59.3022 74.5736 59.5547C70.8951 60.4593 63.8763 60.0064 60.0221 60.026ZM60.0436 20.0296C60.0425 23.557 60.1102 27.3241 60.024 30.8316C62.3384 30.3754 64.9718 30.8126 66.9363 32.1369C68.5255 33.1901 69.6215 34.8411 69.9749 36.7145C70.3642 38.7236 69.9411 40.8051 68.7985 42.5029C66.9125 45.2537 63.2155 46.3353 60.0185 45.9206C60.043 49.2509 59.9467 53.4774 60.1086 56.7287C63.7036 56.6987 67.2988 56.7134 70.8935 56.7728C70.3704 54.2963 70.4477 52.4077 71.8828 50.2056C73.0177 48.4332 74.8216 47.1956 76.8837 46.7747C78.9304 46.3784 81.0506 46.8156 82.7734 47.9894C83.1485 48.2455 83.5071 48.5248 83.8474 48.8256C85.2438 50.5693 86.3412 52.6333 86.0773 54.9392C86.0307 55.3297 85.9716 55.7187 85.9 56.1055C86.9269 57.1916 94.6004 56.5672 96.5362 56.7024C96.2891 45.8614 96.5234 34.9588 96.4181 24.1121C96.4044 22.697 96.4168 21.4003 96.581 19.9928L60.0436 20.0296Z"/><path fill="#EFDEE0" d="M0 0L42.8251 0C44.161 3.98922 43.069 9.30122 43.4126 13.4585C43.4222 13.5746 43.4596 13.8923 43.5564 13.8891C47.2303 13.7679 50.9826 14.1844 52.7954 18.672C53.5971 20.6636 53.5691 22.893 52.7178 24.8639C50.9625 28.9035 47.1882 29.5642 43.3012 29.2394C44.0978 45.5799 45.5781 43.9589 29.11 43.2102C30.0607 47.9375 28.2052 52.2239 23.0799 53.2287C21.0934 53.6181 19.0336 53.2012 17.355 52.0698C14.2474 49.9517 13.6658 46.751 14.1975 43.2775C11.467 43.2702 1.94489 43.5151 0 42.8925L0 0ZM17.3865 46.0199C18.0056 47.7745 18.2925 48.7717 20.1338 49.6458C20.9784 50.0551 21.9538 50.1006 22.8329 49.7717C28.0778 47.8353 23.9262 42.2964 25.6258 40.215C28.359 39.5111 38.9275 40.4478 40.0025 39.6878C39.972 37.3294 39.5236 26.5342 40.5371 25.1255C42.7808 24.6591 44.3316 26.0741 46.7037 25.8798C48.7064 24.4653 49.4405 24.091 49.906 21.5779C50.3511 19.1753 48.6687 17.9759 46.4974 17.6574C44.6065 17.3799 42.6902 17.9217 40.8249 18.1638C40.5913 17.9939 40.3952 17.8513 40.2367 17.7361C39.5713 15.9218 39.9449 5.70645 39.9778 3.21103C32.9697 3.55727 24.803 3.16806 17.6718 3.29415C14.9886 3.34159 5.72005 3.50201 3.35816 3.24753C3.73503 6.68942 3.56613 15.7157 3.50894 19.7073C3.42345 25.6736 3.82387 34.2441 3.42824 40.0031C6.24114 39.9578 15.8459 39.5234 18.0072 40.4765C18.8669 41.5863 17.6578 44.5688 17.3865 46.0199Z"/></svg>