<?xml version="1.0" encoding="utf-8" ?><svg xmlns="http://www.w3.org/2000/svg" xmlns:xlink="http://www.w3.org/1999/xlink" width="100" height="100" viewBox="0 0 100 100"><path fill="#EFDEE0" d="M47.408 64.866C58.8351 64.8355 62.5205 63.5034 71.0185 71.3535C77.1564 70.7711 87.8148 70.1764 92.586 74.225C96.4421 77.1039 97.4114 89.1153 94.257 92.0349C91.4564 94.6272 78.2286 93.794 74.1082 93.8199C71.1478 98.7722 68.5222 98.7779 63.1603 98.6671C59.8572 98.5988 56.4345 98.5847 53.125 98.5787C48.1095 98.5691 33.6062 99.2957 29.92 98.0603C27.8469 97.3655 26.8521 95.5425 25.9427 93.7151C21.3062 93.8528 10.2235 94.2603 6.4319 92.8338C5.15294 91.5833 4.51271 90.5054 4.25769 88.7587C2.50039 76.7224 7.17079 70.4556 19.6864 71.0365C22.5843 71.171 25.9629 70.8834 28.956 71.4786C29.2383 71.155 29.5292 70.839 29.8282 70.5308C35.3704 64.7904 39.8879 65.0023 47.408 64.866ZM59.375 95.2188C72.5684 95.3195 69.9036 96.8194 70.5075 84.8719C71.1653 71.8582 65.0053 67.7009 52.2913 68.2017C48.8505 68.3373 44.6494 68.0053 41.1723 68.2995C35.7693 69.2722 30.6218 72.4555 29.7159 78.1901C29.2372 81.2207 28.923 92.4253 30.4706 94.7815C32.81 95.4895 55.2939 95.2216 59.375 95.2188ZM20.125 90.5168C22.0243 90.5179 24.3838 90.461 26.2491 90.5316C26.1086 86.1433 25.6062 78.2436 27.359 74.3193C25.6362 74.2885 16.4725 74.0697 15.3167 74.3436C7.51427 75.1516 6.84626 80.4202 7.36662 87.1275C7.47099 88.4729 7.92448 90.2155 9.51273 90.3686C12.9947 90.7043 16.616 90.546 20.125 90.5168ZM73.7912 90.5005C77.8021 90.4506 88.7237 91.0382 91.9196 90.0012C92.8414 88.2503 92.7387 83.534 92.5897 81.5198C91.9034 72.2416 79.3619 74.1944 72.665 74.3078C73.9888 77.6354 74.399 86.927 73.7912 90.5005Z"/><path fill="#EFDEE0" d="M47.9504 30.6171C56.7294 29.4929 64.7545 35.7067 65.8639 44.4876C66.9733 53.2686 60.7459 61.2831 51.9631 62.3776C43.2013 63.4696 35.21 57.2603 34.1033 48.5003C32.9966 39.7404 39.1923 31.7387 47.9504 30.6171ZM50.8667 59.1964C57.8626 58.6961 63.1244 52.613 62.612 45.618C62.0996 38.6231 56.0074 33.3718 49.0134 33.8963C42.0363 34.4195 36.8006 40.4935 37.3118 47.4714C37.823 54.4494 43.8879 59.6955 50.8667 59.1964Z"/><path fill="#EFDEE0" d="M44.8166 1.61455C46.8244 1.26837 49.1775 1.47411 51.2201 1.31392C58.7599 0.722564 59.0515 7.44781 60.3927 13.3466C62.3942 14.1417 64.4005 14.9247 66.4116 15.6953C70.3448 13.2138 71.7814 11.5139 76.4823 10.4909C78.3084 11.237 78.4987 11.4569 79.9108 12.6571C89.0423 20.418 85.474 22.2495 80.9634 30.3955C81.8941 32.4788 82.8401 34.0798 83.3683 36.3185C87.5462 37.36 90.3597 37.5749 94.0583 39.8413C94.2983 40.3249 94.4972 40.8277 94.6529 41.3446C95.1293 42.9124 95.7846 47.7645 93.7479 48.3041C93.1974 48.2039 93.1657 48.1279 92.7169 47.8821C89.4559 46.0961 93.8901 43.4941 90.7275 41.7558C88.0128 40.2636 84.4328 39.8759 81.4094 39.3236C80.3279 37.5033 78.0471 32.0287 77.1896 29.914C78.9299 26.8147 80.9724 23.9749 82.7365 20.7568C81.3806 18.6823 78.0724 15.5046 76.1059 13.8322C73.1856 15.2117 69.7137 17.5133 66.9029 19.2545C55.1333 15.998 58.0823 15.1832 54.7863 5.31892C54.6974 5.23655 54.6485 5.20091 54.5486 5.1375L54.4927 5.10255C53.4518 4.45439 50.0746 4.74272 48.7595 4.69195C41.6267 4.32361 45.5208 12.1799 42.1487 15.3187C40.922 16.4605 34.6843 18.8511 33.0428 19.3138C30.6571 17.809 26.3167 14.9194 23.9214 13.8009C22.3586 14.9272 18.421 19.0832 17.2085 20.6258C18.7251 23.5805 21.0605 26.7764 22.7868 29.7638C21.245 35.0857 19.0591 40.9429 12.7627 40.4068C6.60391 39.8824 9.27809 46.445 7.37011 47.9124C6.65882 48.1226 6.48132 48.189 5.77859 47.9324C5.53248 47.7243 5.16856 47.3565 5.10847 47.029C3.29936 37.1672 10.3514 38.3085 16.5341 36.3176C17.2555 34.271 18.1494 32.2893 19.2061 30.3939C17.4459 27.7263 15.0948 24.4687 14.2679 21.2869C13.4821 18.2633 20.7705 11.3535 23.2498 10.6927C25.6865 10.0432 31.5538 14.3841 33.6265 15.7867C34.8887 15.0997 38.0542 13.9413 39.5827 13.2629C41.0655 9.29972 40.6125 3.80435 44.8166 1.61455Z"/><path fill="#EFDEE0" d="M19.0691 49.0969C22.6163 48.5357 26.1906 49.9294 28.4215 52.7437C30.6525 55.558 31.1938 59.3561 29.8379 62.6816C28.482 66.0071 25.4394 68.3439 21.8767 68.796C16.4841 69.4803 11.5404 65.7103 10.7734 60.3288C10.0064 54.9474 13.7001 49.9464 19.0691 49.0969ZM21.8733 65.491C24.8192 64.9395 27.0276 62.4783 27.2578 59.49C27.4107 57.5058 26.6632 55.558 25.2222 54.1855C23.7811 52.813 21.7992 52.1613 19.8248 52.4106C17.4308 52.7129 15.3906 54.2934 14.4997 56.536C13.6087 58.7786 14.008 61.3282 15.5419 63.1911C17.0758 65.0539 19.5014 65.9351 21.8733 65.491Z"/><path fill="#EFDEE0" d="M77.9684 49.0807C83.4096 48.3515 88.4124 52.1692 89.1455 57.6099C89.8785 63.0506 86.0644 68.0562 80.6242 68.7931C75.1786 69.5308 70.1668 65.712 69.433 60.2658C68.6992 54.8196 72.5216 49.8105 77.9684 49.0807ZM80.3766 65.5156C83.4729 65.0014 85.7821 62.3831 85.9054 59.2469C85.9822 57.2957 85.1933 55.4102 83.7499 54.0949C82.3066 52.7797 80.356 52.169 78.4203 52.4263C76.0511 52.7412 74.0358 54.309 73.1478 56.528C72.2599 58.747 72.6373 61.2723 74.1352 63.1347C75.6332 64.9971 78.0189 65.9072 80.3766 65.5156Z"/><path fill="#EFDEE0" d="M47.8724 21.8486C62.3036 21.2064 73.74 30.567 74.7388 45.5796C74.8271 46.907 74.1366 48.262 72.6304 48.1022C72.3034 47.8682 71.7298 47.3457 71.6836 46.9333C70.299 34.5642 64.6059 27.7938 52.3183 25.0824C38.542 24.1437 28.814 34.1031 28.405 46.3992C28.3776 47.2205 27.8154 47.8848 27.1402 48.3331C26.1886 48.2025 26.4777 48.2716 25.6678 47.6754C25.4431 47.2634 25.1934 46.6878 25.1823 46.2195C24.9972 38.4645 29.3329 30.5237 35.7046 26.1838C39.6006 23.5302 43.2874 22.3075 47.8724 21.8486Z"/></svg>