<?xml version="1.0" encoding="utf-8" ?><svg xmlns="http://www.w3.org/2000/svg" xmlns:xlink="http://www.w3.org/1999/xlink" width="100" height="100" viewBox="0 0 100 100"><path fill="#EFDEE0" d="M37.8665 4.80592C42.0817 4.59186 47.1749 4.61991 51.4019 4.73604C56.0337 4.86331 65.4043 3.13132 66.1628 9.51232C66.4393 11.838 66.6372 15.1917 66.2583 17.4498C71.0683 17.4882 92.8968 16.8526 95.4323 18.3457C96.9832 19.259 97.9039 21.0559 98.3244 22.7563C98.9325 25.2156 99.1055 38.0025 97.9732 39.8828C97.0337 40.1957 94.7483 40.0262 93.6492 39.9904C93.6784 40.3266 93.6991 40.7106 93.7019 41.0489C93.8254 56.1863 93.7607 71.3301 93.7698 86.469C93.8606 87.5506 93.5608 88.8172 93.573 89.8546C93.5973 91.9142 90.815 94.7303 88.8185 95.03C86.3856 95.3953 82.6666 95.2374 80.0923 95.2374L62.375 95.221L29.3097 95.2062C23.925 95.2082 18.5616 95.312 13.1763 95.2152C5.39624 95.0755 6.48329 87.2189 6.52485 81.7122C6.56711 77.6738 6.58624 73.6353 6.58221 69.5967L6.52831 50.9498C6.52031 47.7678 6.39279 43.4246 6.6158 40.3366C5.28608 40.3926 3.01938 40.6357 1.88836 40.0341C0.924456 38.0461 1.79548 28.6326 1.53826 25.8329C0.619444 15.8322 10.1921 17.487 16.4802 17.4943L33.9154 17.5176C33.257 12.3704 32.8795 7.58139 37.8665 4.80592ZM90.5066 39.97L79.6671 40.021C79.8733 42.3628 80.5238 48.1423 78.9369 49.6796C77.6999 50.878 74.8554 54.0419 73.4437 54.7705C71.8701 54.7188 67.2409 49.7311 66.6791 48.1902C66.1994 46.8746 66.4632 41.5243 66.5207 40.0048L66.5228 39.9555C55.602 40.18 44.2509 39.9859 33.2929 40.0099C33.6792 43.1269 34.0874 48.0551 31.9466 50.3147C30.9455 51.3714 28.1613 54.3886 26.8518 54.8292C25.6225 54.8177 21.2966 50.0776 20.3622 48.8524C20.135 45.7616 20.2001 43.0215 20.2519 39.9172C16.7685 40.1055 12.8045 40.0278 9.28251 40.0315C9.65675 42.351 9.46889 50.1866 9.46223 52.8355L9.41584 78.7202C9.41468 82.2464 9.24451 86.0476 9.70911 89.546C9.8165 90.3546 10.1176 91.0454 10.8343 91.4801C11.5851 91.9829 12.5755 92.4221 13.4968 92.4407C19.0354 92.5523 24.6494 92.518 30.1834 92.5174L61.7909 92.5074L78.8731 92.5214C81.5429 92.523 84.6922 92.8459 87.2925 92.3512C88.0154 92.2137 89.2913 91.6001 89.7033 90.9831C91.2676 88.6408 90.5261 66.2544 90.5196 62.125C90.5126 55.6956 90.1903 46.1421 90.5066 39.97ZM4.50654 36.9559L91.9375 36.9806L95.5987 37.08C94.6046 17.4348 99.0799 20.4738 76.6363 20.4866L51.9981 20.4891L23.6902 20.4916C18.5898 20.493 12.7387 20.3569 7.68492 20.5589C6.66576 20.9203 5.57226 21.2671 5.20571 22.3555C3.8036 26.5186 5.16386 32.5373 4.50654 36.9559ZM36.9791 17.5104L59.9375 17.5204L63.2029 17.5302C63.1695 15.5269 63.661 9.87411 62.2093 8.52778C60.569 7.00654 43.196 7.72703 40.2781 7.82133C39.3202 7.93251 38.0922 7.97221 37.5693 8.79547C36.3138 10.7724 37.0561 14.9415 36.9791 17.5104ZM30.4365 39.9993C28.145 39.9951 25.7244 40.0316 23.445 39.9826C23.6388 41.8949 23.704 45.3376 23.5799 47.3042C24.5833 48.477 25.9751 49.9186 26.8809 51.0385L29.0722 48.8247C31.2463 46.4516 30.124 43.1918 30.4365 39.9993ZM69.6559 39.986C69.9278 42.581 69.7593 44.9771 69.9286 47.465C71.1731 48.9595 71.9727 49.7274 73.4134 51.0481C73.9456 50.3908 74.6245 49.4995 75.194 48.9042L76.5785 47.3431C76.5349 45.0465 76.406 42.2143 76.5586 39.9614C74.2582 40.0177 71.9567 40.026 69.6559 39.986Z"/><path fill="#EFDEE0" d="M26.0758 61.845C31.3938 61.4082 34.5615 63.0104 37.5596 67.3388C40.0706 67.0406 44.9611 67.1653 47.6266 67.1733C52.4308 67.1879 57.6655 67.0698 62.4371 67.2992C62.6074 67.0236 62.7838 66.7518 62.9661 66.484C67.2215 60.2587 75.5474 60.4261 80.6773 65.4966C81.5666 66.3756 82.0984 66.99 82.3252 68.2602C82.2743 68.4572 82.1554 69.0233 82.056 69.1239C81.2025 69.9873 77.0844 69.8463 75.8061 69.8898C74.5533 70.536 73.2573 71.9191 72.3592 72.9831C73.1842 73.9607 74.4979 75.0326 75.4918 75.8912C77.5334 75.9152 81.6562 75.3219 82.3977 77.4774C82.1023 80.2178 76.9638 83.0828 74.4542 83.7674C73.1364 84.0067 71.7879 84.0231 70.4647 83.816C66.9049 83.2567 64.5402 81.2486 62.488 78.4378C60.2368 78.6136 56.3489 78.4942 53.9964 78.4923C48.5238 78.4625 43.0511 78.4835 37.5789 78.5554C30.0281 88.8019 16.6444 81.4737 18.1289 76.6019C18.8975 75.775 23.3357 75.8107 24.6709 75.7489C25.9539 74.7865 26.66 74.1182 27.8111 72.9921C26.7017 71.8449 25.753 70.9077 24.5683 69.84C22.3732 69.6565 19.1154 70.4509 17.814 68.5924C17.5286 65.6956 23.4582 62.3705 26.0758 61.845ZM61.3488 75.2216C60.9148 73.3635 60.9341 72.1788 61.3366 70.3019C54.1684 70.1641 45.219 70.5392 38.3485 70.1565C38.9744 72.1749 38.6846 72.8748 38.7582 74.9631C40.5339 75.3173 43.7284 75.1432 45.6234 75.2054C50.6389 75.3699 56.4015 74.9755 61.3488 75.2216ZM76.2031 79.3539C73.2223 78.7465 69.5713 75.2018 67.8269 72.8337C69.2471 71.1286 71.7961 68.4698 73.6864 67.2441C74.4355 66.7584 76.3231 67.1297 76.9701 66.461C76.0732 65.0322 71.6247 64.8777 70.0846 65.1107C67.7419 65.9122 66.0756 67.0204 64.954 69.3356C63.9997 71.3452 63.8899 73.6532 64.6491 75.7442C66.2308 80.1912 70.8769 81.9988 75.1952 80.4453C75.808 80.2248 76.6382 79.9296 76.9537 79.3799C76.7391 79.3584 76.3991 79.3038 76.2031 79.3539ZM21.9457 66.7527C23.2745 66.7486 24.6495 66.7277 25.9737 66.7634C27.8166 68.2395 33.3942 71.9158 30.5386 74.6038C28.1766 76.8272 26.6961 78.719 23.3082 79.0784L23.3308 79.3252C23.6947 79.5815 24.0379 79.8435 24.4453 80.0247C26.6551 80.9008 28.6209 81.1345 30.8795 80.1567C32.8503 79.286 34.3971 77.6717 35.1829 75.6654C35.956 73.6986 35.9062 71.5034 35.0446 69.5737C34.2117 67.6697 32.6448 66.1832 30.6996 65.4518C29.4713 64.9818 27.6271 64.8074 26.3072 64.7971C24.7048 65.2992 23.429 65.9943 21.9457 66.7527Z"/></svg>